<?xml version="1.0" encoding="UTF-8"?>
<svg width="298px" height="89px" viewBox="0 0 298 89" version="1.1" xmlns="http://www.w3.org/2000/svg" xmlns:xlink="http://www.w3.org/1999/xlink">
    <!-- Generator: Sketch 63.1 (92452) - https://sketch.com -->
    <title>Logo</title>
    <desc>Created with Sketch.</desc>
    <defs>
        <path d="M29.9585714,17.995225 C29.9585714,17.995225 24.055,3.978075 4.63571429,0.02755 L0.440714286,25.24885 L23.47,28.797725 L29.9585714,17.995225" id="path-1"></path>
    </defs>
    <g id="Logo" stroke="none" stroke-width="1" fill="none" fill-rule="evenodd">
        <g id="Group-2" transform="translate(5.000000, 5.000000)">
            <text id="老虎旅遊" font-family="STSongti-TC-Bold, Songti TC" font-size="48" font-weight="bold" letter-spacing="2.866666" fill="#FFFFFF">
                <tspan x="84" y="57">老虎旅遊</tspan>
            </text>
            <g id="Group">
                <path d="M40,78 C19.0131602,78 2,60.9868398 2,40 C2,19.0131602 19.0131602,2 40,2 C60.9868398,2 78,19.0131602 78,40 C78,60.9868398 60.9868398,78 40,78 Z" id="Fill-5" fill="#F7B747"></path>
                <path d="M39.4996334,2.67817735 C19.1959259,2.67817735 2.6774442,19.1959259 2.6774442,39.4996334 C2.6774442,59.8033409 19.1959259,76.3210895 39.4996334,76.3210895 C59.8033409,76.3210895 76.3218227,59.8033409 76.3218227,39.4996334 C76.3218227,19.1959259 59.8033409,2.67817735 39.4996334,2.67817735 Z M39.4996334,79 C17.7193727,79 0,61.2798942 0,39.4996334 C0,17.7193727 17.7193727,0 39.4996334,0 C61.2798942,0 79,17.7193727 79,39.4996334 C79,61.2798942 61.2798942,79 39.4996334,79 L39.4996334,79 Z" id="Fill-6" fill="#181410"></path>
                <path d="M1.0742898,35 C1.0742898,35 21.0903818,40.3575197 23.4013022,60.8019897 C25.6067419,80.3169008 49.0881002,78.5480458 61,72.0753467 C61,72.0753467 37.0090655,85.4058166 17.9586426,72.0753467 C-1.09103745,58.7448768 1.0742898,35 1.0742898,35" id="Fill-7" fill="#FFFFFE"></path>
                <path d="M77.9257093,46 C77.9257093,46 57.9093695,40.6432082 55.5984205,20.1980103 C53.3929535,0.682371264 29.9113044,2.4519542 18,8.9246533 C18,8.9246533 41.9904887,-4.40581662 61.0411475,8.9246533 C80.0910633,22.2551232 77.9257093,46 77.9257093,46" id="Fill-8" fill="#FFFFFE"></path>
                <path d="M59.905053,71 C59.905053,71 69.7595756,32.8727036 30.3414854,26.3894723 L17,25 C17,25 21.3965118,34.5708665 21.3965118,39.2019545 C21.3965118,43.8323127 25.6410738,49.2347622 30.7959015,50.315544 C35.9507292,51.395596 54.5982755,52.1676873 54.5982755,63.1272964 C54.5982755,63.1272964 60.5107023,66.368912 59.905053,71" id="Fill-9" fill="#0A0B09"></path>
                <g id="Group-12" transform="translate(27.000000, 26.000000)">
                    <mask id="mask-2" fill="white">
                        <use xlink:href="#path-1"></use>
                    </mask>
                    <g id="Clip-11"></g>
                    <path d="M4.63571429,9.2858 C4.63571429,16.38355 10.3042857,22.137875 17.2971429,22.137875 C24.2892857,22.137875 29.9585714,16.38355 29.9585714,9.2858 C29.9585714,2.18805 24.2892857,-3.56555 17.2971429,-3.56555 C10.3042857,-3.56555 4.63571429,2.18805 4.63571429,9.2858" id="Fill-10" fill="#FFFFFE" mask="url(#mask-2)"></path>
                </g>
                <path d="M41,35.9996046 C41,37.6571767 42.3428233,39 44.0003954,39 C45.6563859,39 47,37.6571767 47,35.9996046 C47,34.3428233 45.6563859,33 44.0003954,33 C42.3428233,33 41,34.3428233 41,35.9996046" id="Fill-13" fill="#0A0B09"></path>
                <path d="M20.9417995,8 C20.9417995,8 13.0230922,22.903645 29.1679441,23.3727058 C45.3127961,23.8410233 55,37 55,37 C55,37 52.001022,24.585871 33.1756094,19.1875833 C31.8902285,18.8196196 28.1263172,18.4137445 26.8050686,18.2174972 C23.762171,17.7647903 19.0796077,14.0487286 20.9417995,8" id="Fill-14" fill="#0A0B09"></path>
                <path d="M60.9310445,45 C60.9310445,45 58.7145584,23.479149 42.0136632,18.1098645 C25.3120144,12.7398391 36.9370734,3 36.9370734,3 C36.9370734,3 30.2989197,9.47174005 43.5963292,13.9074936 C56.8944924,18.3425064 61.6439979,32.9048476 60.9310445,45" id="Fill-15" fill="#0A0B09"></path>
                <path d="M21.2969741,33 C21.2969741,33 17.254345,53.7670258 39,57 C39,57 29.534757,54.3650585 28.8382278,46.224918 C28.142425,38.0840281 21.2969741,33 21.2969741,33" id="Fill-16" fill="#0A0B09"></path>
                <path d="M67,14 C67,14 57.9491543,7.69295041 46,9.14557371 C46,9.14557371 52.8946517,4.37022599 61.0165618,9.06791999 L67,14" id="Fill-17" fill="#0A0B09"></path>
                <path d="M54,14.7505242 C54,14.7505242 60.0317239,10.6368134 67.7123232,15.0217579 L73,25 C73,25 68.0234449,16.6161527 54,14.7505242" id="Fill-18" fill="#0A0B09"></path>
                <path d="M30,30.6053751 C30,30.6053751 29.0139062,25.4268835 22.6941404,25.5162305 C22.6941404,25.5162305 9.48121351,23.1387298 2.5252346,28.5881678 C2.52085196,30.5167545 2.17681478,32.3719751 1.81597748,34.2257428 C3.27758767,33.7208962 4.65738859,33.370046 5.64640418,33.3954699 C5.64640418,33.3954699 3.89407892,34.3223538 1.45806194,36.1071137 C1.10233773,38.0836428 0.852527288,40.0892277 1.09868553,42.2117627 C1.60488036,46.5701509 1.89851719,51.4936767 4.7143629,55 C6.13141625,47.2863794 9.71057163,40.5563016 17.2311806,37.6281912 C17.2311806,37.6281912 9.79530266,34.6187242 5.85969262,38.9938195 C5.85969262,38.9938195 11.3635571,27.3373104 30,30.6053751" id="Fill-20" fill="#0A0B09"></path>
                <path d="M11,25.5762056 C11,25.5762056 29.7476546,21.9260354 47,33 L11,25.5762056" id="Fill-21" fill="#0A0B09"></path>
                <path d="M39.4996334,2.67817735 C19.1959259,2.67817735 2.6774442,19.1959259 2.6774442,39.4996334 C2.6774442,59.8033409 19.1959259,76.3210895 39.4996334,76.3210895 C59.8033409,76.3210895 76.3218227,59.8033409 76.3218227,39.4996334 C76.3218227,19.1959259 59.8033409,2.67817735 39.4996334,2.67817735 Z M39.4996334,79 C17.7193727,79 0,61.2798942 0,39.4996334 C0,17.7193727 17.7193727,0 39.4996334,0 C61.2798942,0 79,17.7193727 79,39.4996334 C79,61.2798942 61.2798942,79 39.4996334,79 L39.4996334,79 Z" id="Fill-22" fill="#0A0B09"></path>
                <path d="M12,66 C12,66 21.0501072,72.3070496 33,70.8544263 C33,70.8544263 26.1053483,75.629774 17.9826998,70.93208 L12,66" id="Fill-19" fill="#0A0B09"></path>
            </g>
        </g>
    </g>
</svg>